<svg width="23" height="26" viewBox="0 0 23 26" fill="none" xmlns="http://www.w3.org/2000/svg">
<path d="M18.6515 13.8385C18.6783 11.9473 19.7955 10.1579 21.5678 9.16738C20.4497 7.71577 18.577 6.79541 16.6287 6.73999C14.5506 6.5417 12.5361 7.87043 11.4771 7.87043C10.3977 7.87043 8.76727 6.75968 7.01159 6.79252C4.72314 6.85973 2.58973 8.04254 1.47635 9.86137C-0.91697 13.6283 0.868234 19.1645 3.16084 22.2095C4.30788 23.7005 5.64844 25.366 7.40253 25.3069C9.11902 25.2422 9.76009 24.3119 11.832 24.3119C13.8848 24.3119 14.4862 25.3069 16.2759 25.2694C18.1178 25.2422 19.2782 23.7717 20.385 22.2666C21.2092 21.2042 21.8434 20.03 22.2641 18.7875C20.0995 17.9553 18.654 15.975 18.6515 13.8385Z" fill="#222222"/>
<path d="M15.2711 4.73749C16.2753 3.64151 16.7701 2.23281 16.6503 0.810547C15.116 0.957045 13.6988 1.62367 12.6809 2.67761C11.6856 3.70736 11.1677 5.09127 11.2656 6.45917C12.8004 6.47354 14.3093 5.82498 15.2711 4.73749Z" fill="#222222"/>
</svg>
