<svg width="22" height="22" viewBox="0 0 22 22" fill="none" xmlns="http://www.w3.org/2000/svg">
<path d="M5.76017 21H16.2402C19.0002 21 20.1002 19.31 20.2302 17.25L20.7502 8.99C20.8902 6.83 19.1702 5 17.0002 5C16.3902 5 15.8302 4.65 15.5502 4.11L14.8302 2.66C14.3702 1.75 13.1702 1 12.1502 1H9.86017C8.83017 1 7.63017 1.75 7.17017 2.66L6.45017 4.11C6.17017 4.65 5.61017 5 5.00017 5C2.83017 5 1.11017 6.83 1.25017 8.99L1.77017 17.25C1.89017 19.31 3.00017 21 5.76017 21Z" stroke="url(#paint0_linear_6810_13555)" stroke-width="1.5" stroke-linecap="round" stroke-linejoin="round"/>
<path d="M5.76017 21H16.2402C19.0002 21 20.1002 19.31 20.2302 17.25L20.7502 8.99C20.8902 6.83 19.1702 5 17.0002 5C16.3902 5 15.8302 4.65 15.5502 4.11L14.8302 2.66C14.3702 1.75 13.1702 1 12.1502 1H9.86017C8.83017 1 7.63017 1.75 7.17017 2.66L6.45017 4.11C6.17017 4.65 5.61017 5 5.00017 5C2.83017 5 1.11017 6.83 1.25017 8.99L1.77017 17.25C1.89017 19.31 3.00017 21 5.76017 21Z" stroke="black" stroke-opacity="0.2" stroke-width="1.5" stroke-linecap="round" stroke-linejoin="round"/>
<defs>
<linearGradient id="paint0_linear_6810_13555" x1="11.0002" y1="1" x2="11.0002" y2="21" gradientUnits="userSpaceOnUse">
<stop stop-color="#009900"/>
<stop offset="1" stop-color="#2FCE2F"/>
</linearGradient>
</defs>
</svg>
