<svg width="83" height="90" viewBox="0 0 83 90" fill="none" xmlns="http://www.w3.org/2000/svg">
<path d="M41.5 83.5662C64.4198 83.5662 83 64.9564 83 42C83 19.0436 64.4198 0.433716 41.5 0.433716C18.5802 0.433716 0 19.0436 0 42C0 64.9564 18.5802 83.5662 41.5 83.5662Z" fill="#EFEFEF"/>
<g filter="url(#filter0_d_903_139341)">
<path d="M65.2908 24.2657H17.7042C16.1762 24.2657 14.9375 25.5064 14.9375 27.0368V85.2296C14.9375 86.76 16.1762 88.0007 17.7042 88.0007H65.2908C66.8188 88.0007 68.0575 86.76 68.0575 85.2296V27.0368C68.0575 25.5064 66.8188 24.2657 65.2908 24.2657Z" fill="white"/>
</g>
<path d="M35.9646 32.5782H21.578C20.6612 32.5782 19.918 33.3226 19.918 34.2409C19.918 35.1592 20.6612 35.9035 21.578 35.9035H35.9646C36.8814 35.9035 37.6246 35.1592 37.6246 34.2409C37.6246 33.3226 36.8814 32.5782 35.9646 32.5782Z" fill="#DCDCDC"/>
<path d="M45.9246 39.7814H21.578C20.6612 39.7814 19.918 40.5258 19.918 41.444C19.918 42.3623 20.6612 43.1067 21.578 43.1067H45.9246C46.8414 43.1067 47.5846 42.3623 47.5846 41.444C47.5846 40.5258 46.8414 39.7814 45.9246 39.7814Z" fill="#EFEFEF"/>
<path d="M35.9646 47.5431H21.578C20.6612 47.5431 19.918 48.2875 19.918 49.2057C19.918 50.124 20.6612 50.8684 21.578 50.8684H35.9646C36.8814 50.8684 37.6246 50.124 37.6246 49.2057C37.6246 48.2875 36.8814 47.5431 35.9646 47.5431Z" fill="#DCDCDC"/>
<path d="M45.9246 54.7462H21.578C20.6612 54.7462 19.918 55.4906 19.918 56.4089C19.918 57.3271 20.6612 58.0715 21.578 58.0715H45.9246C46.8414 58.0715 47.5846 57.3271 47.5846 56.4089C47.5846 55.4906 46.8414 54.7462 45.9246 54.7462Z" fill="#EFEFEF"/>
<path d="M35.9646 62.504H21.578C20.6612 62.504 19.918 63.2484 19.918 64.1667C19.918 65.0849 20.6612 65.8293 21.578 65.8293H35.9646C36.8814 65.8293 37.6246 65.0849 37.6246 64.1667C37.6246 63.2484 36.8814 62.504 35.9646 62.504Z" fill="#DCDCDC"/>
<path d="M45.9246 69.7072H21.578C20.6612 69.7072 19.918 70.4515 19.918 71.3698C19.918 72.2881 20.6612 73.0325 21.578 73.0325H45.9246C46.8414 73.0325 47.5846 72.2881 47.5846 71.3698C47.5846 70.4515 46.8414 69.7072 45.9246 69.7072Z" fill="#EFEFEF"/>
<defs>
<filter id="filter0_d_903_139341" x="11.6122" y="19.2778" width="59.7717" height="70.3856" filterUnits="userSpaceOnUse" color-interpolation-filters="sRGB">
<feFlood flood-opacity="0" result="BackgroundImageFix"/>
<feColorMatrix in="SourceAlpha" type="matrix" values="0 0 0 0 0 0 0 0 0 0 0 0 0 0 0 0 0 0 127 0" result="hardAlpha"/>
<feOffset dy="-1.66265"/>
<feGaussianBlur stdDeviation="1.66265"/>
<feColorMatrix type="matrix" values="0 0 0 0 0.788235 0 0 0 0 0.803922 0 0 0 0 0.85098 0 0 0 0.349 0"/>
<feBlend mode="normal" in2="BackgroundImageFix" result="effect1_dropShadow_903_139341"/>
<feBlend mode="normal" in="SourceGraphic" in2="effect1_dropShadow_903_139341" result="shape"/>
</filter>
</defs>
</svg>
