<svg width="16" height="16" viewBox="0 0 16 16" fill="none" xmlns="http://www.w3.org/2000/svg">
<g opacity="0.8">
<path d="M9.33464 1.33398H4.0013C3.64768 1.33398 3.30854 1.47446 3.05849 1.72451C2.80844 1.97456 2.66797 2.3137 2.66797 2.66732V13.334C2.66797 13.6876 2.80844 14.0267 3.05849 14.2768C3.30854 14.5268 3.64768 14.6673 4.0013 14.6673H12.0013C12.3549 14.6673 12.6941 14.5268 12.9441 14.2768C13.1942 14.0267 13.3346 13.6876 13.3346 13.334V5.33398L9.33464 1.33398Z" stroke="#707070" stroke-width="1.5" stroke-linecap="round" stroke-linejoin="round"/>
<path d="M9.33203 1.33398V5.33398H13.332" stroke="#707070" stroke-width="1.5" stroke-linecap="round" stroke-linejoin="round"/>
<path d="M10.6654 8.66602H5.33203" stroke="#707070" stroke-width="1.5" stroke-linecap="round" stroke-linejoin="round"/>
<path d="M10.6654 11.334H5.33203" stroke="#707070" stroke-width="1.5" stroke-linecap="round" stroke-linejoin="round"/>
<path d="M6.66536 6H5.9987H5.33203" stroke="#707070" stroke-width="1.5" stroke-linecap="round" stroke-linejoin="round"/>
</g>
</svg>
