<svg width="21" height="20" viewBox="0 0 21 20" fill="none" xmlns="http://www.w3.org/2000/svg">
<path d="M15.8922 14.0251L16.2172 16.6584C16.3005 17.3501 15.5589 17.8334 14.9672 17.4751L11.4755 15.4001C11.0922 15.4001 10.7172 15.3751 10.3505 15.3251C10.9672 14.6001 11.3339 13.6834 11.3339 12.6917C11.3339 10.3251 9.28386 8.40844 6.75052 8.40844C5.78386 8.40844 4.89219 8.68341 4.15053 9.16675C4.12553 8.95841 4.11719 8.75007 4.11719 8.53341C4.11719 4.74174 7.40886 1.66675 11.4755 1.66675C15.5422 1.66675 18.8339 4.74174 18.8339 8.53341C18.8339 10.7834 17.6755 12.7751 15.8922 14.0251Z" stroke="url(#paint0_linear_5039_51344)" stroke-width="1.5" stroke-linecap="round" stroke-linejoin="round"/>
<path d="M15.8922 14.0251L16.2172 16.6584C16.3005 17.3501 15.5589 17.8334 14.9672 17.4751L11.4755 15.4001C11.0922 15.4001 10.7172 15.3751 10.3505 15.3251C10.9672 14.6001 11.3339 13.6834 11.3339 12.6917C11.3339 10.3251 9.28386 8.40844 6.75052 8.40844C5.78386 8.40844 4.89219 8.68341 4.15053 9.16675C4.12553 8.95841 4.11719 8.75007 4.11719 8.53341C4.11719 4.74174 7.40886 1.66675 11.4755 1.66675C15.5422 1.66675 18.8339 4.74174 18.8339 8.53341C18.8339 10.7834 17.6755 12.7751 15.8922 14.0251Z" stroke="black" stroke-opacity="0.2" stroke-width="1.5" stroke-linecap="round" stroke-linejoin="round"/>
<path d="M11.3346 12.6917C11.3346 13.6834 10.968 14.6001 10.3513 15.3251C9.52631 16.3251 8.21797 16.9667 6.7513 16.9667L4.5763 18.2584C4.20963 18.4834 3.74297 18.1751 3.79297 17.7501L4.0013 16.1084C2.88463 15.3334 2.16797 14.0917 2.16797 12.6917C2.16797 11.2251 2.95131 9.93342 4.15131 9.16676C4.89297 8.68342 5.78464 8.40845 6.7513 8.40845C9.28463 8.40845 11.3346 10.3251 11.3346 12.6917Z" stroke="url(#paint1_linear_5039_51344)" stroke-width="1.5" stroke-linecap="round" stroke-linejoin="round"/>
<path d="M11.3346 12.6917C11.3346 13.6834 10.968 14.6001 10.3513 15.3251C9.52631 16.3251 8.21797 16.9667 6.7513 16.9667L4.5763 18.2584C4.20963 18.4834 3.74297 18.1751 3.79297 17.7501L4.0013 16.1084C2.88463 15.3334 2.16797 14.0917 2.16797 12.6917C2.16797 11.2251 2.95131 9.93342 4.15131 9.16676C4.89297 8.68342 5.78464 8.40845 6.7513 8.40845C9.28463 8.40845 11.3346 10.3251 11.3346 12.6917Z" stroke="black" stroke-opacity="0.2" stroke-width="1.5" stroke-linecap="round" stroke-linejoin="round"/>
<defs>
<linearGradient id="paint0_linear_5039_51344" x1="11.4755" y1="1.66675" x2="11.4755" y2="17.5965" gradientUnits="userSpaceOnUse">
<stop stop-color="#009900"/>
<stop offset="1" stop-color="#2FCE2F"/>
</linearGradient>
<linearGradient id="paint1_linear_5039_51344" x1="6.7513" y1="8.40845" x2="6.7513" y2="18.3341" gradientUnits="userSpaceOnUse">
<stop stop-color="#009900"/>
<stop offset="1" stop-color="#2FCE2F"/>
</linearGradient>
</defs>
</svg>
