<svg width="24" height="25" viewBox="0 0 24 25" fill="none" xmlns="http://www.w3.org/2000/svg">
<path d="M7.55016 22.6907C16.6045 22.6907 21.5583 15.1874 21.5583 8.68253C21.5583 8.4716 21.5536 8.25597 21.5442 8.04503C22.5079 7.34813 23.3395 6.48493 24 5.49597C23.1025 5.89527 22.1496 6.15606 21.1739 6.26941C22.2013 5.65358 22.9705 4.68615 23.3391 3.54644C22.3726 4.11923 21.3156 4.52329 20.2134 4.74128C19.4708 3.95223 18.489 3.42979 17.4197 3.25472C16.3504 3.07966 15.2532 3.26172 14.2977 3.77277C13.3423 4.28382 12.5818 5.09538 12.1338 6.08199C11.6859 7.06859 11.5754 8.17529 11.8195 9.23097C9.86249 9.13276 7.94794 8.62438 6.19998 7.73877C4.45203 6.85317 2.90969 5.61011 1.67297 4.09019C1.0444 5.17392 0.852057 6.45632 1.13503 7.67676C1.418 8.89721 2.15506 9.96412 3.19641 10.6607C2.41463 10.6358 1.64998 10.4254 0.965625 10.0466V10.1075C0.964925 11.2448 1.3581 12.3473 2.07831 13.2274C2.79852 14.1076 3.80132 14.7112 4.91625 14.9357C4.19206 15.1338 3.43198 15.1627 2.69484 15.02C3.00945 15.9981 3.62157 16.8536 4.44577 17.467C5.26997 18.0804 6.26512 18.4213 7.29234 18.4419C5.54842 19.8118 3.39417 20.5548 1.17656 20.5513C0.783287 20.5507 0.390399 20.5266 0 20.4791C2.25286 21.9244 4.87353 22.6921 7.55016 22.6907Z" fill="white"/>
</svg>
