<svg width="24" height="25" viewBox="0 0 24 25" fill="none" xmlns="http://www.w3.org/2000/svg">
<path fill-rule="evenodd" clip-rule="evenodd" d="M12 0.94043C5.37527 0.94043 0 6.3157 0 12.9404C0 19.5652 5.37527 24.9404 12 24.9404C18.6117 24.9404 24 19.5652 24 12.9404C24 6.3157 18.6117 0.94043 12 0.94043ZM19.9262 6.47188C21.3579 8.21592 22.217 10.4415 22.243 12.8493C21.9046 12.7843 18.5206 12.0944 15.1106 12.524C15.0325 12.3548 14.9675 12.1725 14.8894 11.9903C14.6811 11.4958 14.4469 10.9882 14.2126 10.5066C17.9869 8.97083 19.705 6.75822 19.9262 6.47188ZM12 2.7105C14.603 2.7105 16.9848 3.68664 18.7939 5.2875C18.6117 5.54781 17.0629 7.61722 13.4186 8.9838C11.7397 5.89921 9.87855 3.37427 9.5922 2.98381C10.3601 2.8016 11.1671 2.7105 12 2.7105ZM7.63995 3.67362C7.91325 4.03804 9.73538 6.576 11.4404 9.5955C6.65076 10.871 2.42083 10.845 1.96529 10.845C2.62907 7.66928 4.77657 5.02719 7.63995 3.67362ZM1.74404 12.9535C1.74404 12.8493 1.74404 12.7452 1.74404 12.6411C2.18655 12.6541 7.15835 12.7192 12.2733 11.1834C12.5727 11.756 12.846 12.3417 13.1063 12.9274C12.9761 12.9665 12.8329 13.0055 12.7028 13.0445C7.41865 14.7495 4.60738 19.409 4.3731 19.7994C2.7462 17.9903 1.74404 15.5825 1.74404 12.9535ZM12 23.1964C9.6312 23.1964 7.44469 22.3895 5.71367 21.0359C5.89588 20.6585 7.97827 16.6498 13.757 14.6324C13.783 14.6194 13.7961 14.6194 13.8221 14.6064C15.2668 18.3417 15.8525 21.4784 16.0087 22.3764C14.7722 22.91 13.4186 23.1964 12 23.1964ZM17.7136 21.4394C17.6096 20.8146 17.0629 17.8211 15.7223 14.1378C18.9371 13.6302 21.7484 14.4632 22.0998 14.5804C21.6573 17.4307 20.0173 19.8905 17.7136 21.4394Z" fill="white"/>
</svg>
