<svg width="24" height="25" viewBox="0 0 24 25" fill="none" xmlns="http://www.w3.org/2000/svg">
<g clip-path="url(#clip0_3881_62343)">
<path d="M22.2234 0.94043H1.77187C0.792187 0.94043 0 1.71387 0 2.67012V23.2061C0 24.1623 0.792187 24.9404 1.77187 24.9404H22.2234C23.2031 24.9404 24 24.1623 24 23.2107V2.67012C24 1.71387 23.2031 0.94043 22.2234 0.94043ZM7.12031 21.392H3.55781V9.93574H7.12031V21.392ZM5.33906 8.3748C4.19531 8.3748 3.27188 7.45137 3.27188 6.3123C3.27188 5.17324 4.19531 4.2498 5.33906 4.2498C6.47813 4.2498 7.40156 5.17324 7.40156 6.3123C7.40156 7.44668 6.47813 8.3748 5.33906 8.3748ZM20.4516 21.392H16.8937V15.8232C16.8937 14.4967 16.8703 12.7857 15.0422 12.7857C13.1906 12.7857 12.9094 14.2342 12.9094 15.7295V21.392H9.35625V9.93574H12.7687V11.5014H12.8156C13.2891 10.6014 14.4516 9.64981 16.1813 9.64981C19.7859 9.64981 20.4516 12.0217 20.4516 15.1061V21.392Z" fill="white"/>
</g>
<defs>
<clipPath id="clip0_3881_62343">
<rect width="24" height="24" fill="white" transform="translate(0 0.94043)"/>
</clipPath>
</defs>
</svg>
