<svg width="27" height="27" viewBox="0 0 27 27" fill="none" xmlns="http://www.w3.org/2000/svg">
<path d="M12.6026 2.48362C12.9695 1.74045 14.0292 1.74045 14.3961 2.48362L17.3869 8.54275C17.5324 8.8376 17.8136 9.04206 18.139 9.08961L24.8289 10.0674C25.6488 10.1873 25.9756 11.1951 25.382 11.7733L20.5428 16.4867C20.3069 16.7164 20.1993 17.0475 20.2549 17.3721L21.3968 24.0296C21.5369 24.8466 20.6793 25.4695 19.9457 25.0837L13.9648 21.9384C13.6734 21.7852 13.3253 21.7852 13.0339 21.9384L7.05298 25.0837C6.31935 25.4695 5.4618 24.8466 5.60192 24.0296L6.74377 17.3721C6.79943 17.0475 6.69177 16.7164 6.45589 16.4867L1.61669 11.7733C1.0231 11.1951 1.34988 10.1873 2.1698 10.0674L8.85971 9.08961C9.18507 9.04206 9.46626 8.8376 9.6118 8.54275L12.6026 2.48362Z" stroke="#828282" stroke-width="2" stroke-linecap="round" stroke-linejoin="round"/>
</svg>
