<svg width="20" height="20" viewBox="0 0 20 20" fill="none" xmlns="http://www.w3.org/2000/svg">
<path d="M11.4421 2.92568L12.9087 5.85902C13.1087 6.26735 13.6421 6.65902 14.0921 6.73402L16.7504 7.17568C18.4504 7.45902 18.8504 8.69235 17.6254 9.90902L15.5587 11.9757C15.2087 12.3257 15.0171 13.0007 15.1254 13.484L15.7171 16.0424C16.1837 18.0674 15.1087 18.8507 13.3171 17.7924L10.8254 16.3174C10.3754 16.0507 9.63375 16.0507 9.17541 16.3174L6.68375 17.7924C4.90041 18.8507 3.81708 18.059 4.28375 16.0424L4.87541 13.484C4.98375 13.0007 4.79208 12.3257 4.44208 11.9757L2.37541 9.90902C1.15875 8.69235 1.55041 7.45902 3.25041 7.17568L5.90875 6.73402C6.35041 6.65902 6.88375 6.26735 7.08375 5.85902L8.55041 2.92568C9.35041 1.33402 10.6504 1.33402 11.4421 2.92568Z" stroke="url(#paint0_linear_4603_170896)" stroke-width="1.5" stroke-linecap="round" stroke-linejoin="round"/>
<path d="M11.4421 2.92568L12.9087 5.85902C13.1087 6.26735 13.6421 6.65902 14.0921 6.73402L16.7504 7.17568C18.4504 7.45902 18.8504 8.69235 17.6254 9.90902L15.5587 11.9757C15.2087 12.3257 15.0171 13.0007 15.1254 13.484L15.7171 16.0424C16.1837 18.0674 15.1087 18.8507 13.3171 17.7924L10.8254 16.3174C10.3754 16.0507 9.63375 16.0507 9.17541 16.3174L6.68375 17.7924C4.90041 18.8507 3.81708 18.059 4.28375 16.0424L4.87541 13.484C4.98375 13.0007 4.79208 12.3257 4.44208 11.9757L2.37541 9.90902C1.15875 8.69235 1.55041 7.45902 3.25041 7.17568L5.90875 6.73402C6.35041 6.65902 6.88375 6.26735 7.08375 5.85902L8.55041 2.92568C9.35041 1.33402 10.6504 1.33402 11.4421 2.92568Z" stroke="black" stroke-opacity="0.2" stroke-width="1.5" stroke-linecap="round" stroke-linejoin="round"/>
<defs>
<linearGradient id="paint0_linear_4603_170896" x1="10.0022" y1="1.73193" x2="10.0022" y2="18.2638" gradientUnits="userSpaceOnUse">
<stop stop-color="#009900"/>
<stop offset="1" stop-color="#2FCE2F"/>
</linearGradient>
</defs>
</svg>
