<svg width="41" height="40" viewBox="0 0 41 40" fill="none" xmlns="http://www.w3.org/2000/svg">
<path fill-rule="evenodd" clip-rule="evenodd" d="M16.25 27.125C17.5 27.875 19 28.25 20.5 28.25C25.125 28.25 28.75 24.5 28.75 20.125C28.75 17.875 28 15.875 26.375 14.25C24.75 12.75 22.75 11.875 20.5 11.875C16 11.875 12.25 15.625 12.25 20.125C12.25 21.625 12.625 23.125 13.5 24.5L13.75 24.875L12.875 27.875L16 27L16.25 27.125ZM23.25 21.25C23.5 21.25 24.75 21.875 25 22C25.0389 22.0195 25.0779 22.0359 25.1163 22.0521C25.3248 22.1402 25.5195 22.2223 25.625 22.75C25.75 22.75 25.75 23.25 25.5 23.875C25.375 24.375 24.375 25 23.875 25C23.7903 25 23.7092 25.0072 23.6225 25.0148C23.1977 25.0524 22.64 25.1018 20.875 24.375C18.6844 23.4988 17.1656 21.3749 16.7392 20.7785C16.6789 20.6942 16.6405 20.6405 16.625 20.625C16.6037 20.5824 16.5607 20.5145 16.5039 20.4249C16.2274 19.9883 15.625 19.0372 15.625 18C15.625 16.75 16.25 16.125 16.5 15.875C16.75 15.625 17 15.625 17.125 15.625H17.625C17.75 15.625 18 15.625 18.125 16C18.375 16.5 18.875 17.75 18.875 17.875C18.875 17.9167 18.8889 17.9583 18.9028 18C18.9306 18.0833 18.9583 18.1667 18.875 18.25C18.8125 18.3125 18.7813 18.375 18.75 18.4375C18.7188 18.5 18.6875 18.5625 18.625 18.625L18.25 19C18.125 19.125 18 19.25 18.125 19.5C18.25 19.75 18.75 20.625 19.5 21.25C20.3439 21.9884 21.0097 22.2817 21.3473 22.4304C21.4097 22.4579 21.461 22.4805 21.5 22.5C21.75 22.5 21.875 22.5 22 22.375C22.0625 22.25 22.2188 22.0625 22.375 21.875C22.5312 21.6875 22.6875 21.5 22.75 21.375C22.875 21.125 23 21.125 23.25 21.25Z" fill="url(#paint0_linear_4152_18840)"/>
<path fill-rule="evenodd" clip-rule="evenodd" d="M16.25 27.125C17.5 27.875 19 28.25 20.5 28.25C25.125 28.25 28.75 24.5 28.75 20.125C28.75 17.875 28 15.875 26.375 14.25C24.75 12.75 22.75 11.875 20.5 11.875C16 11.875 12.25 15.625 12.25 20.125C12.25 21.625 12.625 23.125 13.5 24.5L13.75 24.875L12.875 27.875L16 27L16.25 27.125ZM23.25 21.25C23.5 21.25 24.75 21.875 25 22C25.0389 22.0195 25.0779 22.0359 25.1163 22.0521C25.3248 22.1402 25.5195 22.2223 25.625 22.75C25.75 22.75 25.75 23.25 25.5 23.875C25.375 24.375 24.375 25 23.875 25C23.7903 25 23.7092 25.0072 23.6225 25.0148C23.1977 25.0524 22.64 25.1018 20.875 24.375C18.6844 23.4988 17.1656 21.3749 16.7392 20.7785C16.6789 20.6942 16.6405 20.6405 16.625 20.625C16.6037 20.5824 16.5607 20.5145 16.5039 20.4249C16.2274 19.9883 15.625 19.0372 15.625 18C15.625 16.75 16.25 16.125 16.5 15.875C16.75 15.625 17 15.625 17.125 15.625H17.625C17.75 15.625 18 15.625 18.125 16C18.375 16.5 18.875 17.75 18.875 17.875C18.875 17.9167 18.8889 17.9583 18.9028 18C18.9306 18.0833 18.9583 18.1667 18.875 18.25C18.8125 18.3125 18.7813 18.375 18.75 18.4375C18.7188 18.5 18.6875 18.5625 18.625 18.625L18.25 19C18.125 19.125 18 19.25 18.125 19.5C18.25 19.75 18.75 20.625 19.5 21.25C20.3439 21.9884 21.0097 22.2817 21.3473 22.4304C21.4097 22.4579 21.461 22.4805 21.5 22.5C21.75 22.5 21.875 22.5 22 22.375C22.0625 22.25 22.2188 22.0625 22.375 21.875C22.5312 21.6875 22.6875 21.5 22.75 21.375C22.875 21.125 23 21.125 23.25 21.25Z" fill="black" fill-opacity="0.2"/>
<path fill-rule="evenodd" clip-rule="evenodd" d="M0.5 20C0.5 8.95431 9.45431 0 20.5 0C31.5457 0 40.5 8.95431 40.5 20C40.5 31.0457 31.5457 40 20.5 40C9.45431 40 0.5 31.0457 0.5 20ZM20.5 10C23.125 10 25.625 11 27.5 12.875C29.375 14.75 30.5 17.25 30.5 19.875C30.5 25.375 26 29.875 20.5 29.875C18.875 29.875 17.25 29.375 15.75 28.625L10.5 30L11.875 25C11 23.5 10.5 21.75 10.5 20C10.5 14.5 15 10 20.5 10Z" fill="url(#paint1_linear_4152_18840)"/>
<path fill-rule="evenodd" clip-rule="evenodd" d="M0.5 20C0.5 8.95431 9.45431 0 20.5 0C31.5457 0 40.5 8.95431 40.5 20C40.5 31.0457 31.5457 40 20.5 40C9.45431 40 0.5 31.0457 0.5 20ZM20.5 10C23.125 10 25.625 11 27.5 12.875C29.375 14.75 30.5 17.25 30.5 19.875C30.5 25.375 26 29.875 20.5 29.875C18.875 29.875 17.25 29.375 15.75 28.625L10.5 30L11.875 25C11 23.5 10.5 21.75 10.5 20C10.5 14.5 15 10 20.5 10Z" fill="black" fill-opacity="0.2"/>
<defs>
<linearGradient id="paint0_linear_4152_18840" x1="20.5" y1="0" x2="20.5" y2="40" gradientUnits="userSpaceOnUse">
<stop stop-color="#009900"/>
<stop offset="1" stop-color="#2FCE2F"/>
</linearGradient>
<linearGradient id="paint1_linear_4152_18840" x1="20.5" y1="0" x2="20.5" y2="40" gradientUnits="userSpaceOnUse">
<stop stop-color="#009900"/>
<stop offset="1" stop-color="#2FCE2F"/>
</linearGradient>
</defs>
</svg>
